HIERARCHY
ROOT Hips
{
	OFFSET 0.000000 0.000000 0.000000
	CHANNELS 6 Xposition Yposition Zposition Zrotation Yrotation Xrotation 
	JOINT LHipJoint
	{
		OFFSET 0.000000 0.000000 0.000000
		CHANNELS 3 Zrotation Yrotation Xrotation
		JOINT LeftUpLeg
		{
			OFFSET 1.363060 -1.794630 0.839290
			CHANNELS 3 Zrotation Yrotation Xrotation
			JOINT LeftLeg
			{
				OFFSET 2.448110 -6.726130 0.000000
				CHANNELS 3 Zrotation Yrotation Xrotation
				JOINT LeftFoot
				{
					OFFSET 2.562200 -7.039590 0.000000
					CHANNELS 3 Zrotation Yrotation Xrotation
					JOINT LeftToeBase
					{
						OFFSET 0.157640 -0.433110 2.322550
						CHANNELS 3 Zrotation Yrotation Xrotation
						End Site
						{
							OFFSET 0.000000 0.000000 0.000000
						}
					}
				}
			}
		}
	}
	JOINT RHipJoint
	{
		OFFSET 0.000000 0.000000 0.000000
		CHANNELS 3 Zrotation Yrotation Xrotation
		JOINT RightUpLeg
		{
			OFFSET -1.305520 -1.794630 0.839290
			CHANNELS 3 Zrotation Yrotation Xrotation
			JOINT RightLeg
			{
				OFFSET -2.542530 -6.985550 0.000000
				CHANNELS 3 Zrotation Yrotation Xrotation
				JOINT RightFoot
				{
					OFFSET -2.568260 -7.056230 0.000000
					CHANNELS 3 Zrotation Yrotation Xrotation
					JOINT RightToeBase
					{
						OFFSET -0.164730 -0.452590 2.363150
						CHANNELS 3 Zrotation Yrotation Xrotation
						End Site
						{
							OFFSET 0.000000 0.000000 0.000000
						}
					}
				}
			}
		}
	}
	JOINT LowerBack
	{
		OFFSET 0.000000 0.000000 0.000000
		CHANNELS 3 Zrotation Yrotation Xrotation
		JOINT Spine
		{
			OFFSET 0.028270 2.035590 -0.193380
			CHANNELS 3 Zrotation Yrotation Xrotation
			JOINT Spine1
			{
				OFFSET 0.056720 2.048850 -0.042750
				CHANNELS 3 Zrotation Yrotation Xrotation
				JOINT Neck
				{
					OFFSET 0.000000 0.000000 0.000000
					CHANNELS 3 Zrotation Yrotation Xrotation
					JOINT Neck1
					{
						OFFSET -0.054170 1.746240 0.172020
						CHANNELS 3 Zrotation Yrotation Xrotation
						JOINT Head
						{
							OFFSET 0.104070 1.761360 -0.123970
							CHANNELS 3 Zrotation Yrotation Xrotation
							End Site
							{
								OFFSET 0.000000 0.000000 0.000000
							}
						}
					}
				}
				JOINT LeftShoulder
				{
					OFFSET 0.000000 0.000000 0.000000
					CHANNELS 3 Zrotation Yrotation Xrotation
					JOINT LeftArm
					{
						OFFSET 3.362410 1.200890 -0.311210
						CHANNELS 3 Zrotation Yrotation Xrotation
						JOINT LeftForeArm
						{
							OFFSET 4.983000 -0.000000 -0.000000
							CHANNELS 3 Zrotation Yrotation Xrotation
							JOINT LeftHand
							{
								OFFSET 3.483560 -0.000000 -0.000000
								CHANNELS 3 Zrotation Yrotation Xrotation
								JOINT LeftFingerBase
								{
									OFFSET 0.000000 0.000000 0.000000
									CHANNELS 3 Zrotation Yrotation Xrotation
									JOINT LeftHandIndex1
									{
										OFFSET 0.715260 -0.000000 -0.000000
										CHANNELS 3 Zrotation Yrotation Xrotation
										End Site
										{
											OFFSET 0.000000 0.000000 0.000000
										}
									}
								}
								JOINT LThumb
								{
									OFFSET 0.000000 0.000000 0.000000
									CHANNELS 3 Zrotation Yrotation Xrotation
									End Site
									{
										OFFSET 0.000000 0.000000 0.000000
									}
								}
							}
						}
					}
				}
				JOINT RightShoulder
				{
					OFFSET 0.000000 0.000000 0.000000
					CHANNELS 3 Zrotation Yrotation Xrotation
					JOINT RightArm
					{
						OFFSET -3.136600 1.374050 -0.404650
						CHANNELS 3 Zrotation Yrotation Xrotation
						JOINT RightForeArm
						{
							OFFSET -5.241900 -0.000000 -0.000000
							CHANNELS 3 Zrotation Yrotation Xrotation
							JOINT RightHand
							{
								OFFSET -3.444170 -0.000000 -0.000000
								CHANNELS 3 Zrotation Yrotation Xrotation
								JOINT RightFingerBase
								{
									OFFSET 0.000000 0.000000 0.000000
									CHANNELS 3 Zrotation Yrotation Xrotation
									JOINT RightHandIndex1
									{
										OFFSET -0.622530 -0.000000 -0.000000
										CHANNELS 3 Zrotation Yrotation Xrotation
										End Site
										{
											OFFSET 0.000000 0.000000 0.000000
										}
									}
								}
								JOINT RThumb
								{
									OFFSET 0.000000 0.000000 0.000000
									CHANNELS 3 Zrotation Yrotation Xrotation
									End Site
									{
										OFFSET 0.000000 0.000000 0.000000
									}
								}
							}
						}
					}
				}
			}
		}
	}
}
MOTION
Frames: 8
Frame Time: 0.033333
-1.772695 17.238610 23.698626 1.056328 3.020629 9.027294 -5.190446 10.906061 -2.891358 -18.061337 -4.049033 -8.769288 -12.032855 -9.341456 -23.724519 0.421769 10.322771 22.380943 0.000000 0.000000 0.000000 9.441916 -9.882791 -3.133110 12.322370 5.237576 -9.651830 -20.374618 -23.203659 55.066523 18.935005 -54.061872 22.530707 0.000000 0.000000 0.000000 -2.205941 0.913454 12.857210 2.297467 0.328383 -2.865670 -0.664318 0.928213 -8.194971 0.045682 0.221416 0.294868 3.121902 -0.180829 5.157825 0.000000 0.000000 0.000000 4.058678 8.934137 9.753394 -69.662224 -4.768001 22.215952 -15.256446 -79.299774 0.498434 1.975933 -14.919553 0.242745 2.026451 -14.919062 0.000000 0.000000 0.000000 0.000000 0.000000 0.000000 0.000000 -4.500198 -14.486677 2.933355 69.207722 2.443864 21.056896 176.421778 81.397256 -179.727831 -3.254807 10.247945 0.133411 -3.284652 10.241510 0.000000 0.000000 0.000000 0.000000 0.000000 0.000000 0.000000 
-1.781782 17.267778 23.901158 1.464894 3.170264 9.153643 -4.742731 11.044332 -3.310712 -19.144273 -4.077858 -8.381719 -11.728242 -8.741381 -21.751522 0.189980 8.708893 19.171536 0.000000 0.000000 0.000000 9.505526 -10.050047 -2.544526 11.591517 5.069935 -9.784349 -19.834923 -23.169608 54.454072 19.120587 -54.798650 23.054309 0.000000 0.000000 0.000000 -2.332895 1.064690 12.844583 2.186751 0.341185 -2.773088 -0.938132 0.958763 -8.483715 0.026334 0.256630 0.634369 3.201776 -0.195530 5.360562 0.000000 0.000000 0.000000 4.142663 8.777001 9.607602 -69.436500 -4.791465 23.256781 -18.788664 -77.457058 0.541640 1.431394 -15.085559 0.264556 1.475788 -15.088450 0.000000 0.000000 0.000000 0.000000 0.000000 0.000000 0.000000 -4.824947 -14.798802 2.517937 69.899262 2.442771 20.459482 175.089957 80.009262 -179.739491 -3.368936 9.924082 0.127703 -3.397790 9.917352 0.000000 0.000000 0.000000 0.000000 0.000000 0.000000 0.000000 
-1.790830 17.298348 24.100152 1.854539 3.300622 9.271105 -4.362615 11.192816 -3.711396 -20.149573 -4.111972 -8.051826 -11.357687 -8.116489 -19.762046 0.008198 7.177857 16.107400 0.000000 0.000000 0.000000 9.619934 -10.197083 -1.932476 10.791655 4.856474 -9.925677 -19.246935 -23.156495 53.779115 19.273760 -55.453173 23.527237 0.000000 0.000000 0.000000 -2.470877 1.183933 12.787349 2.117660 0.341045 -2.675896 -1.221577 0.975965 -8.763816 0.078934 0.276047 0.909618 3.250340 -0.205307 5.502866 0.000000 0.000000 0.000000 4.083820 8.702862 9.523285 -69.240302 -4.818946 23.855688 -21.166200 -76.060687 0.576272 1.010795 -15.049755 0.282276 1.048343 -15.055094 0.000000 0.000000 0.000000 0.000000 0.000000 0.000000 0.000000 -5.089667 -15.065235 2.219857 70.479375 2.402990 19.953547 174.137730 78.987071 -179.749158 -3.437320 9.646326 0.122978 -3.465203 9.639495 0.000000 0.000000 0.000000 0.000000 0.000000 0.000000 0.000000 
-1.798616 17.329799 24.294874 2.223115 3.409174 9.381530 -4.055949 11.343155 -4.089153 -21.062374 -4.149158 -7.778174 -10.941191 -7.476688 -17.783871 -0.130314 5.747440 13.219798 0.000000 0.000000 0.000000 9.781135 -10.326101 -1.298458 9.931625 4.605916 -10.078684 -18.621321 -23.159769 53.050066 19.389748 -56.025554 23.965601 0.000000 0.000000 0.000000 -2.610744 1.286880 12.682424 2.075854 0.333223 -2.585581 -1.471564 0.986748 -9.010026 0.163628 0.286701 1.118139 3.262064 -0.209608 5.580385 0.000000 0.000000 0.000000 3.977475 8.661489 9.443835 -69.041460 -4.854553 24.307530 -24.044331 -74.232641 0.610561 0.522188 -14.957383 0.299931 0.551815 -14.965155 0.000000 0.000000 0.000000 0.000000 0.000000 0.000000 0.000000 -5.310695 -15.295768 2.021043 70.931759 2.303231 19.556458 173.516053 78.288191 -179.756839 -3.474349 9.432658 0.119218 -3.501498 9.425814 0.000000 0.000000 0.000000 0.000000 0.000000 0.000000 0.000000 
-1.805187 17.361568 24.484565 2.567929 3.489367 9.485054 -3.823373 11.486405 -4.439337 -21.872058 -4.184199 -7.553877 -10.487325 -6.835921 -15.854282 -0.232138 4.431470 10.534672 0.000000 0.000000 0.000000 9.986287 -10.436977 -0.644439 9.018980 4.325909 -10.241894 -17.962593 -23.180074 52.272915 19.467849 -56.516291 24.375398 0.000000 0.000000 0.000000 -2.751171 1.376783 12.525788 2.057638 0.321620 -2.495977 -1.683763 0.995304 -9.237511 0.276809 0.288935 1.262194 3.236104 -0.208599 5.597384 0.000000 0.000000 0.000000 3.821577 8.657674 9.370983 -68.841232 -4.918921 24.489043 -27.452385 -71.846733 0.640375 -0.025440 -14.779640 0.315454 -0.004421 -14.789575 0.000000 0.000000 0.000000 0.000000 0.000000 0.000000 0.000000 -5.477749 -15.489453 1.918306 71.239516 2.115385 19.289063 173.200246 77.892969 -179.762308 -3.489618 9.298133 0.116528 -3.516400 9.291294 0.000000 0.000000 0.000000 0.000000 0.000000 0.000000 0.000000 
-1.809900 17.393400 24.668855 2.902943 3.438729 9.633090 -3.670721 11.658266 -4.767013 -22.594988 -4.222043 -7.429355 -10.007492 -6.179815 -13.990508 -0.315034 3.256136 8.039383 0.000000 0.000000 0.000000 10.283439 -10.491462 0.099598 7.858357 3.947647 -10.489661 -17.216475 -23.343106 51.318860 19.376867 -56.653208 24.793894 0.000000 0.000000 0.000000 -2.950319 1.414156 12.291645 2.045199 0.289495 -2.412518 -1.771864 0.972256 -9.387542 0.337039 0.284578 1.333560 3.196353 -0.205401 5.573679 0.000000 0.000000 0.000000 3.664742 8.697144 9.348542 -68.712291 -4.960708 24.425195 -29.512721 -70.232549 0.652144 -0.339097 -14.635677 0.321708 -0.322769 -14.646554 0.000000 0.000000 0.000000 0.000000 0.000000 0.000000 0.000000 -5.478521 -15.600698 1.922066 71.226165 1.907817 19.306215 173.282511 77.929009 -179.762309 -3.483311 9.303518 0.116520 -3.510211 9.296682 0.000000 0.000000 0.000000 0.000000 0.000000 0.000000 0.000000 
-1.812212 17.424818 24.847624 3.226221 3.235611 9.825395 -3.593716 11.859915 -5.067867 -23.227470 -4.256376 -7.397550 -9.520510 -5.516192 -12.222537 -0.380365 2.225853 5.737439 0.000000 0.000000 0.000000 10.666716 -10.495657 0.932444 6.456178 3.471974 -10.812258 -16.385468 -23.652653 50.171932 19.085763 -56.424970 25.272619 0.000000 0.000000 0.000000 -3.212312 1.395851 11.973931 2.038224 0.236346 -2.338392 -1.727232 0.917620 -9.444231 0.338101 0.273831 1.326461 3.142129 -0.199574 5.499860 0.000000 0.000000 0.000000 3.507900 8.771552 9.381388 -68.657465 -4.925898 24.350699 -30.100668 -69.670384 0.652865 -0.425002 -14.583000 0.322182 -0.409936 -14.594050 0.000000 0.000000 0.000000 0.000000 0.000000 0.000000 0.000000 -5.298709 -15.617860 2.040652 70.873032 1.691755 19.622765 173.789725 78.426300 -179.756533 -3.453209 9.457298 0.119347 -3.480737 9.450469 0.000000 0.000000 0.000000 0.000000 0.000000 0.000000 0.000000 
-1.812573 17.455490 25.020370 3.522702 2.944426 10.006687 -3.573091 12.066025 -5.320943 -23.757339 -4.281388 -7.411240 -9.039502 -4.867000 -10.564087 -0.423326 1.322597 3.636418 0.000000 0.000000 0.000000 11.081046 -10.390377 1.724131 4.967060 2.837572 -11.001442 -15.486156 -24.071542 48.837956 18.582428 -55.959267 25.894633 0.000000 0.000000 0.000000 -3.503087 1.304513 11.627728 2.039142 0.142532 -2.277057 -1.552230 0.814140 -9.389684 0.283246 0.257156 1.231779 3.072192 -0.190752 5.368703 0.000000 0.000000 0.000000 3.351657 8.869458 9.462456 -68.678224 -4.803056 24.331711 -29.248226 -70.227653 0.645834 -0.295402 -14.635901 0.318538 -0.278540 -14.646530 0.000000 0.000000 0.000000 0.000000 0.000000 0.000000 0.000000 -4.945943 -15.553548 2.283916 70.191137 1.501683 20.221840 174.773071 79.421347 -179.745211 -3.384369 9.748597 0.124897 -3.412922 9.741867 0.000000 0.000000 0.000000 0.000000 0.000000 0.000000 0.000000 
